<?xml version="1.0" encoding="UTF-8"?>
<svg version="1.1" xmlns="http://www.w3.org/2000/svg" width="500" height="500">
<path d="M0 0 C3.95226946 1.47761798 7.10080395 4.17777561 10.41796875 6.734375 C12.82803961 8.55914293 15.24234803 10.14145422 17.83984375 11.6796875 C18.93296875 12.3809375 20.02609375 13.0821875 21.15234375 13.8046875 C21.15234375 14.4646875 21.15234375 15.1246875 21.15234375 15.8046875 C21.85359375 16.0521875 22.55484375 16.2996875 23.27734375 16.5546875 C26.54748923 17.97648988 29.29346575 19.67715038 32.15234375 21.8046875 C32.15234375 22.4646875 32.15234375 23.1246875 32.15234375 23.8046875 C32.86777344 24.0625 33.58320313 24.3203125 34.3203125 24.5859375 C37.32394486 25.87853515 39.78739747 27.4324584 42.46484375 29.3046875 C43.78935547 30.21734375 43.78935547 30.21734375 45.140625 31.1484375 C45.80449219 31.695 46.46835937 32.2415625 47.15234375 32.8046875 C47.15234375 33.4646875 47.15234375 34.1246875 47.15234375 34.8046875 C47.81234375 34.8046875 48.47234375 34.8046875 49.15234375 34.8046875 C49.15234375 35.4646875 49.15234375 36.1246875 49.15234375 36.8046875 C49.81234375 36.8046875 50.47234375 36.8046875 51.15234375 36.8046875 C57.17031527 46.31400128 59.74773423 56.12094201 57.4296875 67.28515625 C55.60249221 74.94494612 53.18098592 82.00502162 49.15234375 88.8046875 C48.54132813 89.87460938 47.9303125 90.94453125 47.30078125 92.046875 C46.63304687 93.14257812 45.9653125 94.23828125 45.27734375 95.3671875 C44.66117187 96.37910156 44.045 97.39101562 43.41015625 98.43359375 C40.45518117 101.53682883 38.35567814 101.68047549 34.15234375 101.8046875 C33.15234375 100.8046875 33.15234375 100.8046875 32.90234375 98.2421875 C33.15234375 94.8046875 33.15234375 94.8046875 34.65234375 91.3046875 C37.02436325 85.45370607 36.885298 78.99886946 36.15234375 72.8046875 C35.21621457 70.77400728 34.22667223 68.7657633 33.15234375 66.8046875 C33.15234375 66.1446875 33.15234375 65.4846875 33.15234375 64.8046875 C32.49234375 64.8046875 31.83234375 64.8046875 31.15234375 64.8046875 C30.43304688 63.89460938 29.71375 62.98453125 28.97265625 62.046875 C26.14332084 58.51591423 23.08450103 56.80879192 19.02734375 54.9296875 C18.40730469 54.62289062 17.78726563 54.31609375 17.1484375 54 C14.29834018 52.62704989 12.35357383 51.8046875 9.15234375 51.8046875 C9.15087719 52.40360998 9.14941063 53.00253246 9.14789963 53.61960411 C9.11076493 68.22734587 9.0516623 82.83488623 8.96844101 97.44243431 C8.92871846 104.50671112 8.89629172 111.57087763 8.88134766 118.63525391 C8.86689708 125.45648431 8.83170845 132.27736026 8.78403473 139.09843826 C8.76923078 141.6970179 8.76130331 144.29564637 8.7604599 146.89426804 C8.75808568 150.54234767 8.73096658 154.18948571 8.69824219 157.83740234 C8.70578773 159.43855392 8.70578773 159.43855392 8.71348572 161.072052 C8.59383845 169.72874596 6.00991943 176.17836363 2.15234375 183.8046875 C1.49234375 183.8046875 0.83234375 183.8046875 0.15234375 183.8046875 C-0.11578125 184.6090625 -0.38390625 185.4134375 -0.66015625 186.2421875 C-1.05203125 187.0878125 -1.44390625 187.9334375 -1.84765625 188.8046875 C-2.83765625 189.1346875 -3.82765625 189.4646875 -4.84765625 189.8046875 C-4.84765625 190.4646875 -4.84765625 191.1246875 -4.84765625 191.8046875 C-5.50765625 191.8046875 -6.16765625 191.8046875 -6.84765625 191.8046875 C-6.84765625 192.4646875 -6.84765625 193.1246875 -6.84765625 193.8046875 C-16.79602759 201.40354987 -29.43722007 204.80808447 -41.84765625 203.8046875 C-48.14936059 202.55126208 -54.03561719 200.51697239 -59.84765625 197.8046875 C-59.84765625 197.1446875 -59.84765625 196.4846875 -59.84765625 195.8046875 C-60.58886719 195.55847656 -61.33007812 195.31226563 -62.09375 195.05859375 C-68.4436934 192.16734293 -73.6972881 185.0856173 -76.21875 178.640625 C-78.72985479 167.31725804 -77.74785578 155.87970184 -71.84765625 145.8046875 C-69.01437976 141.41347126 -65.83123835 137.21918644 -61.84765625 133.8046875 C-61.18765625 133.8046875 -60.52765625 133.8046875 -59.84765625 133.8046875 C-59.84765625 133.1446875 -59.84765625 132.4846875 -59.84765625 131.8046875 C-46.4372871 125.02488243 -33.66060573 121.32774886 -18.84765625 125.8046875 C-16.87808242 126.78090819 -14.93468418 127.81154336 -13.01953125 128.890625 C-12.0459668 129.43509277 -11.07240234 129.97956055 -10.06933594 130.54052734 C-9.33618164 130.9577002 -8.60302734 131.37487305 -7.84765625 131.8046875 C-7.85042163 131.13654589 -7.85318701 130.46840427 -7.85603619 129.78001595 C-7.92222419 113.53957293 -7.97190172 97.2991725 -8.00309277 81.05862617 C-8.01857657 73.20488778 -8.03969483 65.35123929 -8.07397461 57.49755859 C-8.10383084 50.65408802 -8.12322024 43.81068255 -8.12992173 36.96714866 C-8.13384045 33.3418897 -8.14308097 29.71681698 -8.16484642 26.09161758 C-8.18891962 22.04943754 -8.18962869 18.00758346 -8.18823242 13.96533203 C-8.19901825 12.75692657 -8.20980408 11.54852112 -8.22091675 10.30349731 C-8.21679276 9.20690796 -8.21266876 8.1103186 -8.2084198 6.98049927 C-8.21118518 6.02367815 -8.21395056 5.06685703 -8.21679974 4.08104134 C-8.09498239 3.32984457 -7.97316504 2.5786478 -7.84765625 1.8046875 C-4.76645026 -0.24944982 -3.58000422 -0.62063498 0 0 Z " fill="#F6F6F6" transform="translate(249.84765625,142.1953125)"/>
<path d="M0 0 C6.93 0 13.86 0 21 0 C21 55.11 21 110.22 21 167 C-6.72 167 -34.44 167 -63 167 C-61.9550524 162.82020958 -60.92445906 161.43888737 -58.1875 158.25 C-48.88766394 146.9371404 -46.81245338 135.35616314 -47 121.0234375 C-47.00115737 119.11718741 -46.99977976 117.21093438 -46.99609375 115.3046875 C-46.99166303 112.33019617 -47.00027669 109.35886252 -47.05126953 106.38476562 C-47.31104186 89.79215018 -47.31104186 89.79215018 -44.15380859 85.47631836 C-41.81274954 83.91026969 -39.64500572 82.94596826 -37 82 C-35.84489 81.29164852 -34.70863446 80.55083311 -33.6015625 79.76953125 C-31.6026913 78.45531278 -29.6026736 77.14283658 -27.6015625 75.83203125 C-25.03985684 74.14114862 -25.03985684 74.14114862 -23.2734375 72.26171875 C-22 71 -22 71 -20 71 C-20 70.34 -20 69.68 -20 69 C-19.34 69 -18.68 69 -18 69 C-18 68.34 -18 67.68 -18 67 C-17.34 67 -16.68 67 -16 67 C-16 66.34 -16 65.68 -16 65 C-15.34 65 -14.68 65 -14 65 C-13.73960937 64.42894531 -13.47921875 63.85789063 -13.2109375 63.26953125 C-11.90323256 60.81863908 -10.376985 58.84114095 -8.625 56.6875 C-0.19318007 45.9164174 3.34219104 35.3053947 3.4375 21.6875 C3.44749023 20.8519458 3.45748047 20.0163916 3.46777344 19.15551758 C3.38826971 13.44203913 2.13405434 9.28135995 0 4 C0 2.68 0 1.36 0 0 Z " fill="#F8F8F9" transform="translate(315,177)"/>
<path d="M0 0 C22.44 0 44.88 0 68 0 C68 26.07 68 52.14 68 79 C61.73 79 55.46 79 49 79 C40.4947516 80.14677506 33.15775305 82.92112347 25.5 86.75 C23 88 23 88 21 88 C21 88.66 21 89.32 21 90 C19.87474845 91.02649277 18.69717355 91.99587696 17.5 92.9375 C10.11923968 99.21899814 4.97204858 107.22839272 1 116 C-1 114 -1 114 -1.23047829 111.97352409 C-1.22126036 111.13469248 -1.21204243 110.29586086 -1.20254517 109.43161011 C-1.19688034 108.46964722 -1.19121552 107.50768433 -1.18537903 106.51657104 C-1.16883774 105.4577774 -1.15229645 104.39898376 -1.13525391 103.30810547 C-1.12579239 102.19590637 -1.11633087 101.08370728 -1.10658264 99.93780518 C-1.07280108 96.24743575 -1.02471391 92.55739515 -0.9765625 88.8671875 C-0.95040611 86.31414662 -0.92513826 83.76109649 -0.90072632 81.20803833 C-0.84079995 75.16603472 -0.77188682 69.12419775 -0.69865549 63.08234608 C-0.60766674 55.53025212 -0.53035918 47.97802627 -0.453125 40.42578125 C-0.31525582 26.95034804 -0.15663981 13.47525713 0 0 Z " fill="#F9F9F9" transform="translate(164,177)"/>
<path d="M0 0 C-1 3 -1 3 -2.8125 4 C-3.8953125 4.495 -3.8953125 4.495 -5 5 C-7.49923106 6.69302749 -9.44217084 8.45295549 -11.5625 10.625 C-14 13 -14 13 -17 14 C-15.44396229 10.18063472 -13.04395069 7.73955562 -10 5 C-9.34 5 -8.68 5 -8 5 C-8 4.34 -8 3.68 -8 3 C-2.25 0 -2.25 0 0 0 Z " fill="#B0B1BA" transform="translate(198,271)"/>
<path d="M0 0 C0.66 0.33 1.32 0.66 2 1 C1.51917969 1.33644531 1.03835938 1.67289062 0.54296875 2.01953125 C-1.75609967 4.97048742 -1.56983952 8.08708942 -1.6875 11.6875 C-1.72166016 12.38939453 -1.75582031 13.09128906 -1.79101562 13.81445312 C-1.87329947 15.54241387 -1.9383324 17.27118072 -2 19 C-2.33 19 -2.66 19 -3 19 C-3.08071788 16.20775927 -3.14035408 13.41783434 -3.1875 10.625 C-3.21263672 9.8309375 -3.23777344 9.036875 -3.26367188 8.21875 C-3.29004405 6.14413852 -3.15486462 4.06899135 -3 2 C-2.01 1.34 -1.02 0.68 0 0 Z " fill="#D6D7DF" transform="translate(273,262)"/>
<path d="M0 0 C0.8125 1.6875 0.8125 1.6875 1 4 C-1.4375 6.75 -1.4375 6.75 -4 9 C-4.66 8.67 -5.32 8.34 -6 8 C-6 7.34 -6 6.68 -6 6 C-5.34 6 -4.68 6 -4 6 C-4 5.34 -4 4.68 -4 4 C-3.34 4 -2.68 4 -2 4 C-1.34 2.68 -0.68 1.36 0 0 Z " fill="#9696A2" transform="translate(303,238)"/>
<path d="M0 0 C0.33 0 0.66 0 1 0 C1.33 1.65 1.66 3.3 2 5 C2.66 5 3.32 5 4 5 C3.34 6.65 2.68 8.3 2 10 C0 8 0 8 -0.1953125 6.0546875 C-0.13020833 4.03645833 -0.06510417 2.01822917 0 0 Z " fill="#7F8286" transform="translate(163,283)"/>
</svg>
